<svg id="Layer_1" data-name="Layer 1" xmlns="http://www.w3.org/2000/svg" viewBox="0 0 100 100"><defs><style>.cls-1{fill:#fff;}.cls-2{fill:#777;}.cls-3{fill:#666;}</style></defs><title>image</title><rect class="cls-1" x="6.5" y="16.5" width="87" height="67" rx="6.5"/><path class="cls-2" d="M87,18a5,5,0,0,1,5,5V77a5,5,0,0,1-5,5H13a5,5,0,0,1-5-5V23a5,5,0,0,1,5-5H87m0-3H13a8,8,0,0,0-8,8V77a8,8,0,0,0,8,8H87a8,8,0,0,0,8-8V23a8,8,0,0,0-8-8Z"/><path class="cls-3" d="M38.21,25.79A7.5,7.5,0,0,1,27.79,36.21,7.5,7.5,0,1,0,38.21,25.79Z"/><path class="cls-2" d="M39.5,30a7.51,7.51,0,0,0-1.29-4.21A7.5,7.5,0,0,0,27.79,36.21,7.5,7.5,0,0,0,39.5,30Z"/><polygon class="cls-3" points="35.88 53.88 29.12 47.12 29.12 47.12 35.88 53.88 35.88 53.88"/><path class="cls-3" d="M85.88,45.88,72.12,32.12h0L82.88,42.88A8.33,8.33,0,0,1,85,48V72a3,3,0,0,1-3,3H12a3,3,0,0,0,3,3H85a3,3,0,0,0,3-3V51A8.33,8.33,0,0,0,85.88,45.88Z"/><path class="cls-2" d="M85,72V48a8.33,8.33,0,0,0-2.12-5.12L72.12,32.12a3,3,0,0,0-4.24,0L43.12,56.88a3,3,0,0,1-4.24,0l-3-3h0l-6.76-6.76a3,3,0,0,0-4.24,0L14.12,57.88A8.33,8.33,0,0,0,12,63V75H82A3,3,0,0,0,85,72Z"/><path class="cls-1" d="M75,72H64a1,1,0,0,1,0-2H75a1,1,0,0,1,0,2Z"/><path class="cls-1" d="M81,72H80a1,1,0,0,1,0-2h1a1,1,0,0,1,0,2Z"/><path class="cls-1" d="M61,72H60a1,1,0,0,1,0-2h1a1,1,0,0,1,0,2Z"/></svg>